<?xml version="1.0" encoding="UTF-8" standalone="no"?>
<!-- Created with Inkscape (http://www.inkscape.org/) -->
<svg
   xmlns:dc="http://purl.org/dc/elements/1.1/"
   xmlns:cc="http://creativecommons.org/ns#"
   xmlns:rdf="http://www.w3.org/1999/02/22-rdf-syntax-ns#"
   xmlns:svg="http://www.w3.org/2000/svg"
   xmlns="http://www.w3.org/2000/svg"
   xmlns:xlink="http://www.w3.org/1999/xlink"
   xmlns:sodipodi="http://sodipodi.sourceforge.net/DTD/sodipodi-0.dtd"
   xmlns:inkscape="http://www.inkscape.org/namespaces/inkscape"
   id="svg2403"
   sodipodi:version="0.32"
   inkscape:version="0.46"
   width="1052.3622"
   height="1488.1888"
   xml:space="preserve"
   sodipodi:docname="itunesCheck.svg"
   inkscape:output_extension="org.inkscape.output.svg.inkscape"><metadata
     id="metadata2408"><rdf:RDF><cc:Work
         rdf:about=""><dc:format>image/svg+xml</dc:format><dc:type
           rdf:resource="http://purl.org/dc/dcmitype/StillImage" /></cc:Work></rdf:RDF></metadata><defs
     id="defs2406"><linearGradient
       id="linearGradient3325"><stop
         id="stop3327"
         offset="0"
         style="stop-color:#6b9e06;stop-opacity:1;" /><stop
         style="stop-color:#bce66b;stop-opacity:0;"
         offset="1"
         id="stop3329" /></linearGradient><linearGradient
       id="linearGradient3309"><stop
         style="stop-color:#edfdcd;stop-opacity:1;"
         offset="0"
         id="stop3311" /><stop
         id="stop3317"
         offset="1"
         style="stop-color:#bce66b;stop-opacity:0;" /></linearGradient><inkscape:perspective
       sodipodi:type="inkscape:persp3d"
       inkscape:vp_x="0 : 526.18109 : 1"
       inkscape:vp_y="0 : 1000 : 0"
       inkscape:vp_z="744.09448 : 526.18109 : 1"
       inkscape:persp3d-origin="372.04724 : 350.78739 : 1"
       id="perspective2410" /><linearGradient
       inkscape:collect="always"
       xlink:href="#linearGradient3309"
       id="linearGradient3315"
       x1="87.184662"
       y1="-673.70256"
       x2="109.99113"
       y2="-673.70258"
       gradientUnits="userSpaceOnUse"
       gradientTransform="matrix(0,1,-1,0,-525.94953,-821.45559)" /><linearGradient
       inkscape:collect="always"
       xlink:href="#linearGradient3325"
       id="linearGradient3323"
       gradientUnits="userSpaceOnUse"
       gradientTransform="matrix(0,-1,-1,0,-525.94953,-525.94953)"
       x1="87.184662"
       y1="-673.70258"
       x2="109.99113"
       y2="-673.70258" /></defs><sodipodi:namedview
     inkscape:window-height="852"
     inkscape:window-width="1440"
     inkscape:pageshadow="2"
     inkscape:pageopacity="0.0"
     guidetolerance="10.0"
     gridtolerance="10.0"
     objecttolerance="10.0"
     borderopacity="1.0"
     bordercolor="#666666"
     pagecolor="#ffffff"
     id="base"
     showgrid="false"
     inkscape:zoom="3.4888045"
     inkscape:cx="165.37856"
     inkscape:cy="826.65062"
     inkscape:window-x="0"
     inkscape:window-y="0"
     inkscape:current-layer="layer1" /><g
     id="g2412"
     inkscape:groupmode="layer"
     inkscape:label="itunesCheck"
     transform="matrix(1.25,0,0,-1.25,0,1488.1888)"
     style="display:inline"><g
       inkscape:groupmode="layer"
       id="layer1"
       inkscape:label="background"
       style="display:inline"><rect
         style="fill:#ff0000;fill-rule:evenodd;stroke:#000000;stroke-width:0.80000001px;stroke-linecap:butt;stroke-linejoin:miter;stroke-opacity:1"
         id="rect2534"
         width="753.95453"
         height="614.53717"
         x="20.178833"
         y="-1192.6147"
         transform="scale(1,-1)" /></g><g
       id="g2414"
       transform="matrix(1,0,0,-1,7.9450097,-2.7564319)"><path
         d="M 208.51172,-635.87988 C 208.51172,-623.25684 198.27979,-613.02441 185.65723,-613.02441 C 185.65723,-613.02441 110.22998,-613.02441 110.22998,-613.02441 C 97.60742,-613.02441 87.375,-623.25684 87.375,-635.87988 C 87.375,-635.87988 87.375,-711.30664 87.375,-711.30664 C 87.375,-723.92969 97.60742,-734.16113 110.22998,-734.16113 C 110.22998,-734.16113 185.65723,-734.16113 185.65723,-734.16113 C 198.27979,-734.16113 208.51172,-723.92969 208.51172,-711.30664 C 208.51172,-711.30664 208.51172,-635.87988 208.51172,-635.87988 z"
         style="fill:#8cd009;fill-opacity:1;fill-rule:nonzero;stroke:none"
         id="path2416" /><path
         id="path3319"
         style="opacity:1;fill:url(#linearGradient3323);fill-opacity:1;fill-rule:nonzero;stroke:none;display:inline"
         d="M 110.04014,-734.27092 C 97.417096,-734.27092 87.184666,-724.03899 87.184666,-711.41643 C 87.184666,-711.41643 87.184666,-635.98917 87.184666,-635.98917 C 87.184666,-623.36662 97.417096,-613.1342 110.04014,-613.1342 C 110.04014,-613.1342 185.4669,-613.1342 185.4669,-613.1342 C 198.08995,-613.1342 208.32139,-623.36662 208.32139,-635.98917 C 208.32139,-635.98917 208.32139,-711.41643 208.32139,-711.41643 C 208.32139,-724.03899 198.08995,-734.27092 185.4669,-734.27092 C 185.4669,-734.27092 110.04014,-734.27092 110.04014,-734.27092 z" /><path
         d="M 244.94922,-1015.852 C 244.94922,-1015.852 244.94922,-1058.2354 244.94922,-1058.2354 C 244.94922,-1058.2354 252.6543,-1058.2354 252.6543,-1058.2354 C 252.6543,-1058.2354 252.6543,-1015.852 252.6543,-1015.852 C 252.6543,-1015.852 244.94922,-1015.852 244.94922,-1015.852 z M 248.62646,-1066.0303 C 245.73584,-1066.0303 243.81152,-1068.3096 243.81152,-1071.0205 C 243.81152,-1073.7354 245.82568,-1075.9248 248.80176,-1075.9248 C 251.77783,-1075.9248 253.70605,-1073.7354 253.70605,-1071.0205 C 253.70605,-1068.3096 251.77783,-1066.0303 248.71631,-1066.0303 C 248.71631,-1066.0303 248.62646,-1066.0303 248.62646,-1066.0303 z"
         style="fill:#80cc28;fill-opacity:1;fill-rule:nonzero;stroke:none"
         id="path2422" /><path
         d="M 268.22754,-1078.9053 C 268.22754,-1078.9053 246.68066,-1078.9053 246.68066,-1078.9053 C 246.68066,-1078.9053 246.68066,-1086.6787 246.68066,-1086.6787 C 246.68066,-1086.6787 299.12109,-1086.6787 299.12109,-1086.6787 C 299.12109,-1086.6787 299.12109,-1078.9053 299.12109,-1078.9053 C 299.12109,-1078.9053 277.47168,-1078.9053 277.47168,-1078.9053 C 277.47168,-1078.9053 277.47168,-1015.852 277.47168,-1015.852 C 277.47168,-1015.852 268.22754,-1015.852 268.22754,-1015.852 C 268.22754,-1015.852 268.22754,-1078.9053 268.22754,-1078.9053 z"
         style="fill:#656263;fill-opacity:1;fill-rule:nonzero;stroke:none"
         id="path2424" /><path
         d="M 334.52979,-1029.7236 C 334.52979,-1024.4683 334.63672,-1019.8462 334.95313,-1015.852 C 334.95313,-1015.852 326.75586,-1015.852 326.75586,-1015.852 C 326.75586,-1015.852 326.23047,-1024.1562 326.23047,-1024.1562 C 326.23047,-1024.1562 326.02051,-1024.1562 326.02051,-1024.1562 C 323.70752,-1020.0557 318.24268,-1014.6978 309.20801,-1014.6978 C 301.22021,-1014.6978 291.65527,-1019.2134 291.65527,-1036.9756 C 291.65527,-1036.9756 291.65527,-1066.7144 291.65527,-1066.7144 C 291.65527,-1066.7144 300.90381,-1066.7144 300.90381,-1066.7144 C 300.90381,-1066.7144 300.90381,-1038.6558 300.90381,-1038.6558 C 300.90381,-1028.9878 303.95264,-1022.3686 312.25195,-1022.3686 C 318.45215,-1022.3686 322.7627,-1026.6748 324.44287,-1030.8779 C 324.96875,-1032.1392 325.28516,-1033.8242 325.28516,-1035.6069 C 325.28516,-1035.6069 325.28516,-1066.7144 325.28516,-1066.7144 C 325.28516,-1066.7144 334.52979,-1066.7144 334.52979,-1066.7144 C 334.52979,-1066.7144 334.52979,-1029.7236 334.52979,-1029.7236 z"
         style="fill:#656263;fill-opacity:1;fill-rule:nonzero;stroke:none"
         id="path2426" /><path
         d="M 341.46973,-1052.9458 C 341.46973,-1058.3081 341.36279,-1062.5112 341.05078,-1066.7144 C 341.05078,-1066.7144 349.24756,-1066.7144 349.24756,-1066.7144 C 349.24756,-1066.7144 349.77344,-1058.4106 349.77344,-1058.4106 C 349.77344,-1058.4106 349.98291,-1058.4106 349.98291,-1058.4106 C 352.50586,-1063.1397 358.38965,-1067.8691 366.7959,-1067.8691 C 373.83838,-1067.8691 384.76367,-1063.6655 384.76367,-1046.2241 C 384.76367,-1046.2241 384.76367,-1015.852 384.76367,-1015.852 C 384.76367,-1015.852 375.51855,-1015.852 375.51855,-1015.852 C 375.51855,-1015.852 375.51855,-1045.1724 375.51855,-1045.1724 C 375.51855,-1053.3691 372.47021,-1060.3047 363.74707,-1060.3047 C 357.75684,-1060.3047 353.02734,-1055.9946 351.34668,-1050.8467 C 350.92773,-1049.6919 350.71875,-1048.0073 350.71875,-1046.5361 C 350.71875,-1046.5361 350.71875,-1015.852 350.71875,-1015.852 C 350.71875,-1015.852 341.46973,-1015.852 341.46973,-1015.852 C 341.46973,-1015.852 341.46973,-1052.9458 341.46973,-1052.9458 z"
         style="fill:#656263;fill-opacity:1;fill-rule:nonzero;stroke:none"
         id="path2428" /><path
         d="M 423.64453,-1046.3267 C 423.74707,-1052.1079 421.22852,-1061.3569 410.92773,-1061.3569 C 401.46973,-1061.3569 397.47559,-1052.7363 396.74023,-1046.3267 C 396.74023,-1046.3267 423.64453,-1046.3267 423.64453,-1046.3267 z M 396.6377,-1039.7075 C 396.84717,-1027.2007 404.72754,-1022.0522 413.97656,-1022.0522 C 420.5957,-1022.0522 424.69629,-1023.207 428.05664,-1024.5752 C 428.05664,-1024.5752 429.7373,-1018.0586 429.7373,-1018.0586 C 426.4834,-1016.5879 420.80518,-1014.8003 412.71484,-1014.8003 C 397.16357,-1014.8003 387.70508,-1025.2036 387.70508,-1040.4434 C 387.70508,-1055.8921 396.84717,-1067.9761 411.66309,-1067.9761 C 428.2666,-1067.9761 432.57715,-1053.3691 432.57715,-1044.0137 C 432.57715,-1042.1235 432.46973,-1040.6528 432.26074,-1039.6006 C 432.26074,-1039.6006 396.6377,-1039.7075 396.6377,-1039.7075 z"
         style="fill:#656263;fill-opacity:1;fill-rule:nonzero;stroke:none"
         id="path2430" /><path
         d="M 436.46387,-1025.2036 C 439.30273,-1023.5234 444.13477,-1021.6333 448.76172,-1021.6333 C 455.38086,-1021.6333 458.53125,-1024.8916 458.53125,-1029.1973 C 458.53125,-1033.6103 455.90625,-1036.0303 449.17969,-1038.5488 C 439.93164,-1041.9141 435.625,-1046.8525 435.625,-1052.9458 C 435.625,-1061.1431 442.34766,-1067.8691 453.17383,-1067.8691 C 458.32227,-1067.8691 462.8418,-1066.5049 465.57422,-1064.7178 C 465.57422,-1064.7178 463.36719,-1058.0986 463.36719,-1058.0986 C 461.37109,-1059.2529 457.69336,-1061.0405 452.96484,-1061.0405 C 447.5,-1061.0405 444.55371,-1057.8848 444.55371,-1054.1045 C 444.55371,-1049.7944 447.5,-1047.9048 454.11914,-1045.3818 C 462.8418,-1042.1235 467.46387,-1037.7109 467.46387,-1030.04 C 467.46387,-1021.0005 460.42578,-1014.6978 448.54688,-1014.6978 C 442.98047,-1014.6978 437.83203,-1016.1685 434.25781,-1018.2681 C 434.25781,-1018.2681 436.46387,-1025.2036 436.46387,-1025.2036 z"
         style="fill:#656263;fill-opacity:1;fill-rule:nonzero;stroke:none"
         id="path2432" /><path
         d="M 524.84277,-1018.0586 C 521.58398,-1016.3784 514.75195,-1014.6978 506.13574,-1014.6978 C 486.17188,-1014.6978 471.24805,-1027.3076 471.24805,-1050.6367 C 471.24805,-1072.9146 486.27344,-1087.8374 508.23926,-1087.8374 C 516.95801,-1087.8374 522.63184,-1085.9434 525.05273,-1084.6821 C 525.05273,-1084.6821 522.73926,-1077.2202 522.73926,-1077.2202 C 519.37793,-1078.9053 514.43945,-1080.1665 508.55176,-1080.1665 C 491.94824,-1080.1665 480.91602,-1069.5493 480.91602,-1050.9492 C 480.91602,-1033.5078 490.89648,-1022.4712 508.02539,-1022.4712 C 513.7041,-1022.4712 519.37793,-1023.6304 523.05566,-1025.4131 C 523.05566,-1025.4131 524.84277,-1018.0586 524.84277,-1018.0586 z"
         style="fill:#80cc28;fill-opacity:1;fill-rule:nonzero;stroke:none"
         id="path2434" /><path
         d="M 531.88086,-1090.4629 C 531.88086,-1090.4629 541.12988,-1090.4629 541.12988,-1090.4629 C 541.12988,-1090.4629 541.12988,-1058.7271 541.12988,-1058.7271 C 541.12988,-1058.7271 541.33984,-1058.7271 541.33984,-1058.7271 C 542.81055,-1061.3569 545.12305,-1063.7725 547.95898,-1065.2437 C 550.69043,-1066.9238 553.94922,-1067.8691 557.41699,-1067.8691 C 564.24512,-1067.8691 575.1748,-1063.6655 575.1748,-1046.1172 C 575.1748,-1046.1172 575.1748,-1015.852 575.1748,-1015.852 C 575.1748,-1015.852 565.92969,-1015.852 565.92969,-1015.852 C 565.92969,-1015.852 565.92969,-1045.0654 565.92969,-1045.0654 C 565.92969,-1053.3691 562.88086,-1060.1978 554.1582,-1060.1978 C 548.16797,-1060.1978 543.5459,-1055.9946 541.75781,-1050.9492 C 541.23242,-1049.6919 541.12988,-1048.3237 541.12988,-1046.5361 C 541.12988,-1046.5361 541.12988,-1015.852 541.12988,-1015.852 C 541.12988,-1015.852 531.88086,-1015.852 531.88086,-1015.852 C 531.88086,-1015.852 531.88086,-1090.4629 531.88086,-1090.4629 z"
         style="fill:#80cc28;fill-opacity:1;fill-rule:nonzero;stroke:none"
         id="path2436" /><path
         d="M 616.15527,-1046.3267 C 616.25781,-1052.1079 613.73926,-1061.3569 603.43848,-1061.3569 C 593.98047,-1061.3569 589.98633,-1052.7363 589.25098,-1046.3267 C 589.25098,-1046.3267 616.15527,-1046.3267 616.15527,-1046.3267 z M 589.14844,-1039.7075 C 589.35742,-1027.2007 597.23828,-1022.0522 606.4873,-1022.0522 C 613.10645,-1022.0522 617.20703,-1023.207 620.56836,-1024.5752 C 620.56836,-1024.5752 622.24805,-1018.0586 622.24805,-1018.0586 C 618.99414,-1016.5879 613.31641,-1014.8003 605.22559,-1014.8003 C 589.67383,-1014.8003 580.21582,-1025.2036 580.21582,-1040.4434 C 580.21582,-1055.8921 589.35742,-1067.9761 604.17383,-1067.9761 C 620.77734,-1067.9761 625.08789,-1053.3691 625.08789,-1044.0137 C 625.08789,-1042.1235 624.98047,-1040.6528 624.77148,-1039.6006 C 624.77148,-1039.6006 589.14844,-1039.7075 589.14844,-1039.7075 z"
         style="fill:#80cc28;fill-opacity:1;fill-rule:nonzero;stroke:none"
         id="path2438" /><path
         d="M 666.49121,-1017.6396 C 664.0752,-1016.481 658.71387,-1014.6978 651.88477,-1014.6978 C 636.54297,-1014.6978 626.55859,-1025.1011 626.55859,-1040.7598 C 626.55859,-1056.4136 637.27832,-1067.8691 653.88184,-1067.8691 C 659.34668,-1067.8691 664.17773,-1066.5049 666.70117,-1065.1367 C 666.70117,-1065.1367 664.59766,-1058.0986 664.59766,-1058.0986 C 662.39063,-1059.2529 658.92285,-1060.5142 653.88184,-1060.5142 C 642.2168,-1060.5142 635.91016,-1051.7915 635.91016,-1041.1787 C 635.91016,-1029.4067 643.47852,-1022.1592 653.56543,-1022.1592 C 658.82031,-1022.1592 662.28809,-1023.4209 664.91406,-1024.5752 C 664.91406,-1024.5752 666.49121,-1017.6396 666.49121,-1017.6396 z"
         style="fill:#80cc28;fill-opacity:1;fill-rule:nonzero;stroke:none"
         id="path2440" /><path
         d="M 680.25977,-1043.3848 C 680.25977,-1043.3848 680.46973,-1043.3848 680.46973,-1043.3848 C 681.73047,-1045.1724 683.41113,-1047.4814 684.88281,-1049.166 C 684.88281,-1049.166 699.91211,-1066.7144 699.91211,-1066.7144 C 699.91211,-1066.7144 710.94434,-1066.7144 710.94434,-1066.7144 C 710.94434,-1066.7144 691.29199,-1045.8008 691.29199,-1045.8008 C 691.29199,-1045.8008 713.67578,-1015.852 713.67578,-1015.852 C 713.67578,-1015.852 702.43066,-1015.852 702.43066,-1015.852 C 702.43066,-1015.852 684.98926,-1040.3364 684.98926,-1040.3364 C 684.98926,-1040.3364 680.25977,-1034.9785 680.25977,-1034.9785 C 680.25977,-1034.9785 680.25977,-1015.852 680.25977,-1015.852 C 680.25977,-1015.852 671.01074,-1015.852 671.01074,-1015.852 C 671.01074,-1015.852 671.01074,-1090.4629 671.01074,-1090.4629 C 671.01074,-1090.4629 680.25977,-1090.4629 680.25977,-1090.4629 C 680.25977,-1090.4629 680.25977,-1043.3848 680.25977,-1043.3848 z"
         style="fill:#80cc28;fill-opacity:1;fill-rule:nonzero;stroke:none"
         id="path2442" /><path
         d="M 207.13672,-1015.5874 C 207.13672,-1002.9648 196.90479,-992.73242 184.28223,-992.73242 C 184.28223,-992.73242 108.85498,-992.73242 108.85498,-992.73242 C 96.23242,-992.73242 86,-1002.9648 86,-1015.5874 C 86,-1015.5874 86,-1091.0147 86,-1091.0147 C 86,-1103.6372 96.23242,-1113.8691 108.85498,-1113.8691 C 108.85498,-1113.8691 184.28223,-1113.8691 184.28223,-1113.8691 C 196.90479,-1113.8691 207.13672,-1103.6372 207.13672,-1091.0147 C 207.13672,-1091.0147 207.13672,-1015.5874 207.13672,-1015.5874 z"
         style="fill:#80cc28;fill-opacity:1;fill-rule:nonzero;stroke:none"
         id="path2444" /><path
         d="M 177.17578,-1081.3511 C 177.17578,-1081.3511 86,-1081.3511 86,-1081.3511 C 86,-1081.3511 86,-1076.8613 86,-1076.8613 C 86,-1076.8613 172.4165,-1076.8613 172.4165,-1076.8613 C 179.78809,-1076.8613 185.78711,-1070.8623 185.78711,-1063.4902 C 185.78711,-1063.4902 185.78711,-1036.2017 185.78711,-1036.2017 C 185.78711,-1028.8296 179.78809,-1022.8306 172.4165,-1022.8306 C 172.4165,-1022.8306 86,-1022.8306 86,-1022.8306 C 86,-1022.8306 86,-1018.8281 86,-1018.8281 C 86,-1018.8281 172.4165,-1018.8281 172.4165,-1018.8281 C 181.99902,-1018.8281 189.79785,-1026.6191 189.79785,-1036.2017 C 189.79785,-1036.2017 189.79785,-1063.4902 189.79785,-1063.4902 C 189.79785,-1068.2368 187.87402,-1072.5381 184.77832,-1075.6768 C 191.21387,-1072.7647 195.7207,-1066.3125 195.7207,-1058.7998 C 195.7207,-1058.7998 195.7207,-1022.3262 195.7207,-1022.3262 C 195.7207,-1012.102 187.40332,-1003.7856 177.17578,-1003.7856 C 177.17578,-1003.7856 89.37402,-1003.7856 89.37402,-1003.7856 C 90.25,-1002.3403 91.24219,-1000.9849 92.40527,-999.7749 C 92.40527,-999.7749 177.17578,-999.7749 177.17578,-999.7749 C 189.61035,-999.7749 199.73145,-1009.8916 199.73145,-1022.3262 C 199.73145,-1022.3262 199.73145,-1058.7998 199.73145,-1058.7998 C 199.73145,-1071.2339 189.61035,-1081.3511 177.17578,-1081.3511 z"
         style="fill:#ffffff;fill-opacity:1;fill-rule:nonzero;stroke:none"
         id="path2446" /><path
         d="M 174.80273,-1046.481 C 174.80273,-1047.4814 174.44727,-1048.3281 173.74219,-1049.0205 C 173.03662,-1049.7178 172.18994,-1050.064 171.20215,-1050.064 C 171.20215,-1050.064 167.60156,-1050.064 167.60156,-1050.064 C 167.60156,-1050.064 167.60156,-1046.481 167.60156,-1046.481 C 167.60156,-1045.5059 167.95215,-1044.6807 168.6582,-1044.0005 C 169.36328,-1043.3164 170.20996,-1042.9746 171.20215,-1042.9746 C 172.18994,-1042.9746 173.03662,-1043.3252 173.74219,-1044.0176 C 174.44727,-1044.7148 174.80273,-1045.5317 174.80273,-1046.481 z M 174.80273,-1064.3672 C 174.80273,-1065.3418 174.44727,-1066.167 173.74219,-1066.8511 C 173.03662,-1067.5269 172.18994,-1067.8691 171.20215,-1067.8691 C 170.20996,-1067.8691 169.36328,-1067.5269 168.6582,-1066.8511 C 167.95215,-1066.167 167.60156,-1065.3418 167.60156,-1064.3672 C 167.60156,-1064.3672 167.60156,-1060.7837 167.60156,-1060.7837 C 167.60156,-1060.7837 171.20215,-1060.7837 171.20215,-1060.7837 C 172.21582,-1060.7837 173.0708,-1061.1387 173.76367,-1061.8486 C 174.45215,-1062.5542 174.80273,-1063.3965 174.80273,-1064.3672 z M 164.02734,-1053.6943 C 164.02734,-1053.6943 164.02734,-1057.1533 164.02734,-1057.1533 C 164.02734,-1057.1533 160.5127,-1057.1533 160.5127,-1057.1533 C 160.5127,-1057.1533 160.5127,-1053.6943 160.5127,-1053.6943 C 160.5127,-1053.6943 164.02734,-1053.6943 164.02734,-1053.6943 z M 156.9375,-1046.481 C 156.9375,-1046.481 156.9375,-1050.064 156.9375,-1050.064 C 156.9375,-1050.064 153.3457,-1050.064 153.3457,-1050.064 C 152.34082,-1050.064 151.49902,-1049.709 150.81885,-1049.0034 C 150.13477,-1048.2939 149.79297,-1047.4512 149.79297,-1046.481 C 149.79297,-1045.5059 150.14355,-1044.6807 150.83984,-1044.0005 C 151.5332,-1043.3164 152.37109,-1042.9746 153.3457,-1042.9746 C 154.3208,-1042.9746 155.16309,-1043.3164 155.87305,-1044.0005 C 156.58301,-1044.6807 156.9375,-1045.5059 156.9375,-1046.481 z M 156.9375,-1060.7837 C 156.9375,-1060.7837 156.9375,-1064.3672 156.9375,-1064.3672 C 156.9375,-1065.3418 156.58301,-1066.167 155.87305,-1066.8511 C 155.16309,-1067.5269 154.3208,-1067.8691 153.3457,-1067.8691 C 152.37109,-1067.8691 151.5332,-1067.5269 150.83984,-1066.8511 C 150.14355,-1066.167 149.79297,-1065.3418 149.79297,-1064.3672 C 149.79297,-1063.3662 150.14355,-1062.5195 150.83984,-1061.8272 C 151.5332,-1061.1299 152.37109,-1060.7837 153.3457,-1060.7837 C 153.3457,-1060.7837 156.9375,-1060.7837 156.9375,-1060.7837 z M 178.37305,-1046.481 C 178.37305,-1044.5649 177.67188,-1042.8975 176.26465,-1041.478 C 174.8584,-1040.0581 173.17334,-1039.3486 171.20215,-1039.3486 C 169.25684,-1039.3486 167.57227,-1040.0498 166.15625,-1041.4522 C 164.7373,-1042.855 164.02734,-1044.5269 164.02734,-1046.4639 C 164.02734,-1046.4639 164.02734,-1050.064 164.02734,-1050.064 C 164.02734,-1050.064 160.5127,-1050.064 160.5127,-1050.064 C 160.5127,-1050.064 160.5127,-1046.4639 160.5127,-1046.4639 C 160.5127,-1044.5522 159.80664,-1042.8892 158.4043,-1041.4736 C 157.00195,-1040.0581 155.31738,-1039.3486 153.3457,-1039.3486 C 151.4043,-1039.3486 149.73242,-1040.0498 148.32617,-1041.4565 C 146.92334,-1042.8633 146.22217,-1044.5352 146.22217,-1046.481 C 146.22217,-1048.4775 146.92334,-1050.1792 148.32617,-1051.5864 C 149.72852,-1052.9888 151.40039,-1053.6943 153.3374,-1053.6943 C 153.3374,-1053.6943 156.9375,-1053.6943 156.9375,-1053.6943 C 156.9375,-1053.6943 156.9375,-1057.1533 156.9375,-1057.1533 C 156.9375,-1057.1533 153.3374,-1057.1533 153.3374,-1057.1533 C 151.37012,-1057.1533 149.69434,-1057.8716 148.30469,-1059.3042 C 146.91504,-1060.7368 146.22217,-1062.4131 146.22217,-1064.3286 C 146.22217,-1066.2954 146.92334,-1067.9888 148.32617,-1069.3911 C 149.73242,-1070.7979 151.4043,-1071.499 153.3457,-1071.499 C 155.28711,-1071.499 156.96338,-1070.7979 158.38721,-1069.3955 C 159.80273,-1067.9932 160.5127,-1066.3213 160.5127,-1064.3843 C 160.5127,-1064.3843 160.5127,-1060.7837 160.5127,-1060.7837 C 160.5127,-1060.7837 164.02734,-1060.7837 164.02734,-1060.7837 C 164.02734,-1060.7837 164.02734,-1064.3843 164.02734,-1064.3843 C 164.02734,-1066.3213 164.7373,-1067.9932 166.15625,-1069.3955 C 167.57227,-1070.7979 169.23926,-1071.499 171.15918,-1071.499 C 173.13086,-1071.499 174.82422,-1070.7979 176.24316,-1069.3911 C 177.66309,-1067.9888 178.37305,-1066.3125 178.37305,-1064.3672 C 178.37305,-1062.4258 177.66748,-1060.7368 176.25635,-1059.3042 C 174.84961,-1057.8716 173.14355,-1057.1533 171.1377,-1057.1533 C 171.1377,-1057.1533 167.60156,-1057.1533 167.60156,-1057.1533 C 167.60156,-1057.1533 167.60156,-1053.6943 167.60156,-1053.6943 C 167.60156,-1053.6943 171.17676,-1053.6943 171.17676,-1053.6943 C 173.12598,-1053.6943 174.81104,-1052.9844 176.23486,-1051.5649 C 177.65918,-1050.145 178.37305,-1048.4478 178.37305,-1046.481 z"
         style="fill:#ffffff;fill-opacity:1;fill-rule:nonzero;stroke:none"
         id="path2448" /><path
         d="M 244.94922,-821.85205 C 244.94922,-821.85205 244.94922,-864.23535 244.94922,-864.23535 C 244.94922,-864.23535 252.6543,-864.23535 252.6543,-864.23535 C 252.6543,-864.23535 252.6543,-821.85205 252.6543,-821.85205 C 252.6543,-821.85205 244.94922,-821.85205 244.94922,-821.85205 z M 248.62646,-872.03027 C 245.73584,-872.03027 243.81152,-874.30957 243.81152,-877.02051 C 243.81152,-879.73535 245.82568,-881.9248 248.80176,-881.9248 C 251.77783,-881.9248 253.70605,-879.73535 253.70605,-877.02051 C 253.70605,-874.30957 251.77783,-872.03027 248.71631,-872.03027 C 248.71631,-872.03027 248.62646,-872.03027 248.62646,-872.03027 z"
         style="fill:#f68712;fill-opacity:1;fill-rule:nonzero;stroke:none"
         id="path2450" /><path
         d="M 268.22754,-884.90527 C 268.22754,-884.90527 246.68066,-884.90527 246.68066,-884.90527 C 246.68066,-884.90527 246.68066,-892.67871 246.68066,-892.67871 C 246.68066,-892.67871 299.12109,-892.67871 299.12109,-892.67871 C 299.12109,-892.67871 299.12109,-884.90527 299.12109,-884.90527 C 299.12109,-884.90527 277.47168,-884.90527 277.47168,-884.90527 C 277.47168,-884.90527 277.47168,-821.85205 277.47168,-821.85205 C 277.47168,-821.85205 268.22754,-821.85205 268.22754,-821.85205 C 268.22754,-821.85205 268.22754,-884.90527 268.22754,-884.90527 z"
         style="fill:#656263;fill-opacity:1;fill-rule:nonzero;stroke:none"
         id="path2452" /><path
         d="M 334.52979,-835.72363 C 334.52979,-830.46826 334.63672,-825.84619 334.95313,-821.85205 C 334.95313,-821.85205 326.75586,-821.85205 326.75586,-821.85205 C 326.75586,-821.85205 326.23047,-830.15625 326.23047,-830.15625 C 326.23047,-830.15625 326.02051,-830.15625 326.02051,-830.15625 C 323.70752,-826.05566 318.24268,-820.69775 309.20801,-820.69775 C 301.22021,-820.69775 291.65527,-825.21338 291.65527,-842.97559 C 291.65527,-842.97559 291.65527,-872.71436 291.65527,-872.71436 C 291.65527,-872.71436 300.90381,-872.71436 300.90381,-872.71436 C 300.90381,-872.71436 300.90381,-844.65576 300.90381,-844.65576 C 300.90381,-834.98779 303.95264,-828.36865 312.25195,-828.36865 C 318.45215,-828.36865 322.7627,-832.6748 324.44287,-836.87793 C 324.96875,-838.13916 325.28516,-839.82422 325.28516,-841.60693 C 325.28516,-841.60693 325.28516,-872.71436 325.28516,-872.71436 C 325.28516,-872.71436 334.52979,-872.71436 334.52979,-872.71436 C 334.52979,-872.71436 334.52979,-835.72363 334.52979,-835.72363 z"
         style="fill:#656263;fill-opacity:1;fill-rule:nonzero;stroke:none"
         id="path2454" /><path
         d="M 341.46973,-858.9458 C 341.46973,-864.30811 341.36279,-868.51123 341.05078,-872.71436 C 341.05078,-872.71436 349.24756,-872.71436 349.24756,-872.71436 C 349.24756,-872.71436 349.77344,-864.41064 349.77344,-864.41064 C 349.77344,-864.41064 349.98291,-864.41064 349.98291,-864.41064 C 352.50586,-869.13965 358.38965,-873.86914 366.7959,-873.86914 C 373.83838,-873.86914 384.76367,-869.66553 384.76367,-852.22412 C 384.76367,-852.22412 384.76367,-821.85205 384.76367,-821.85205 C 384.76367,-821.85205 375.51855,-821.85205 375.51855,-821.85205 C 375.51855,-821.85205 375.51855,-851.17236 375.51855,-851.17236 C 375.51855,-859.36914 372.47021,-866.30469 363.74707,-866.30469 C 357.75684,-866.30469 353.02734,-861.99463 351.34668,-856.84668 C 350.92773,-855.69189 350.71875,-854.00732 350.71875,-852.53613 C 350.71875,-852.53613 350.71875,-821.85205 350.71875,-821.85205 C 350.71875,-821.85205 341.46973,-821.85205 341.46973,-821.85205 C 341.46973,-821.85205 341.46973,-858.9458 341.46973,-858.9458 z"
         style="fill:#656263;fill-opacity:1;fill-rule:nonzero;stroke:none"
         id="path2456" /><path
         d="M 423.64453,-852.32666 C 423.74707,-858.10791 421.22852,-867.35693 410.92773,-867.35693 C 401.46973,-867.35693 397.47559,-858.73633 396.74023,-852.32666 C 396.74023,-852.32666 423.64453,-852.32666 423.64453,-852.32666 z M 396.6377,-845.70752 C 396.84717,-833.20068 404.72754,-828.05225 413.97656,-828.05225 C 420.5957,-828.05225 424.69629,-829.20703 428.05664,-830.5752 C 428.05664,-830.5752 429.7373,-824.05859 429.7373,-824.05859 C 426.4834,-822.58789 420.80518,-820.80029 412.71484,-820.80029 C 397.16357,-820.80029 387.70508,-831.20361 387.70508,-846.44336 C 387.70508,-861.89209 396.84717,-873.97607 411.66309,-873.97607 C 428.2666,-873.97607 432.57715,-859.36914 432.57715,-850.01367 C 432.57715,-848.12354 432.46973,-846.65283 432.26074,-845.60059 C 432.26074,-845.60059 396.6377,-845.70752 396.6377,-845.70752 z"
         style="fill:#656263;fill-opacity:1;fill-rule:nonzero;stroke:none"
         id="path2458" /><path
         d="M 436.46387,-831.20361 C 439.30273,-829.52344 444.13477,-827.6333 448.76172,-827.6333 C 455.38086,-827.6333 458.53125,-830.8916 458.53125,-835.19727 C 458.53125,-839.61035 455.90625,-842.03027 449.17969,-844.54883 C 439.93164,-847.91406 435.625,-852.85254 435.625,-858.9458 C 435.625,-867.14307 442.34766,-873.86914 453.17383,-873.86914 C 458.32227,-873.86914 462.8418,-872.50488 465.57422,-870.71777 C 465.57422,-870.71777 463.36719,-864.09863 463.36719,-864.09863 C 461.37109,-865.25293 457.69336,-867.04053 452.96484,-867.04053 C 447.5,-867.04053 444.55371,-863.88477 444.55371,-860.10449 C 444.55371,-855.79443 447.5,-853.90479 454.11914,-851.38184 C 462.8418,-848.12354 467.46387,-843.71094 467.46387,-836.04004 C 467.46387,-827.00049 460.42578,-820.69775 448.54688,-820.69775 C 442.98047,-820.69775 437.83203,-822.16846 434.25781,-824.26807 C 434.25781,-824.26807 436.46387,-831.20361 436.46387,-831.20361 z"
         style="fill:#656263;fill-opacity:1;fill-rule:nonzero;stroke:none"
         id="path2460" /><path
         d="M 524.84277,-824.05859 C 521.58398,-822.37842 514.75195,-820.69775 506.13574,-820.69775 C 486.17188,-820.69775 471.24805,-833.30762 471.24805,-856.63672 C 471.24805,-878.91455 486.27344,-893.8374 508.23926,-893.8374 C 516.95801,-893.8374 522.63184,-891.94336 525.05273,-890.68213 C 525.05273,-890.68213 522.73926,-883.22021 522.73926,-883.22021 C 519.37793,-884.90527 514.43945,-886.1665 508.55176,-886.1665 C 491.94824,-886.1665 480.91602,-875.54932 480.91602,-856.94922 C 480.91602,-839.50781 490.89648,-828.47119 508.02539,-828.47119 C 513.7041,-828.47119 519.37793,-829.63037 523.05566,-831.41309 C 523.05566,-831.41309 524.84277,-824.05859 524.84277,-824.05859 z"
         style="fill:#f68712;fill-opacity:1;fill-rule:nonzero;stroke:none"
         id="path2462" /><path
         d="M 531.88086,-896.46289 C 531.88086,-896.46289 541.12988,-896.46289 541.12988,-896.46289 C 541.12988,-896.46289 541.12988,-864.72705 541.12988,-864.72705 C 541.12988,-864.72705 541.33984,-864.72705 541.33984,-864.72705 C 542.81055,-867.35693 545.12305,-869.77246 547.95898,-871.24365 C 550.69043,-872.92383 553.94922,-873.86914 557.41699,-873.86914 C 564.24512,-873.86914 575.1748,-869.66553 575.1748,-852.11719 C 575.1748,-852.11719 575.1748,-821.85205 575.1748,-821.85205 C 575.1748,-821.85205 565.92969,-821.85205 565.92969,-821.85205 C 565.92969,-821.85205 565.92969,-851.06543 565.92969,-851.06543 C 565.92969,-859.36914 562.88086,-866.19775 554.1582,-866.19775 C 548.16797,-866.19775 543.5459,-861.99463 541.75781,-856.94922 C 541.23242,-855.69189 541.12988,-854.32373 541.12988,-852.53613 C 541.12988,-852.53613 541.12988,-821.85205 541.12988,-821.85205 C 541.12988,-821.85205 531.88086,-821.85205 531.88086,-821.85205 C 531.88086,-821.85205 531.88086,-896.46289 531.88086,-896.46289 z"
         style="fill:#f68712;fill-opacity:1;fill-rule:nonzero;stroke:none"
         id="path2464" /><path
         d="M 616.15527,-852.32666 C 616.25781,-858.10791 613.73926,-867.35693 603.43848,-867.35693 C 593.98047,-867.35693 589.98633,-858.73633 589.25098,-852.32666 C 589.25098,-852.32666 616.15527,-852.32666 616.15527,-852.32666 z M 589.14844,-845.70752 C 589.35742,-833.20068 597.23828,-828.05225 606.4873,-828.05225 C 613.10645,-828.05225 617.20703,-829.20703 620.56836,-830.5752 C 620.56836,-830.5752 622.24805,-824.05859 622.24805,-824.05859 C 618.99414,-822.58789 613.31641,-820.80029 605.22559,-820.80029 C 589.67383,-820.80029 580.21582,-831.20361 580.21582,-846.44336 C 580.21582,-861.89209 589.35742,-873.97607 604.17383,-873.97607 C 620.77734,-873.97607 625.08789,-859.36914 625.08789,-850.01367 C 625.08789,-848.12354 624.98047,-846.65283 624.77148,-845.60059 C 624.77148,-845.60059 589.14844,-845.70752 589.14844,-845.70752 z"
         style="fill:#f68712;fill-opacity:1;fill-rule:nonzero;stroke:none"
         id="path2466" /><path
         d="M 666.49121,-823.63965 C 664.0752,-822.48096 658.71387,-820.69775 651.88477,-820.69775 C 636.54297,-820.69775 626.55859,-831.10107 626.55859,-846.75977 C 626.55859,-862.41357 637.27832,-873.86914 653.88184,-873.86914 C 659.34668,-873.86914 664.17773,-872.50488 666.70117,-871.13672 C 666.70117,-871.13672 664.59766,-864.09863 664.59766,-864.09863 C 662.39063,-865.25293 658.92285,-866.51416 653.88184,-866.51416 C 642.2168,-866.51416 635.91016,-857.7915 635.91016,-847.17871 C 635.91016,-835.40674 643.47852,-828.15918 653.56543,-828.15918 C 658.82031,-828.15918 662.28809,-829.4209 664.91406,-830.5752 C 664.91406,-830.5752 666.49121,-823.63965 666.49121,-823.63965 z"
         style="fill:#f68712;fill-opacity:1;fill-rule:nonzero;stroke:none"
         id="path2468" /><path
         d="M 680.25977,-849.38477 C 680.25977,-849.38477 680.46973,-849.38477 680.46973,-849.38477 C 681.73047,-851.17236 683.41113,-853.48145 684.88281,-855.16602 C 684.88281,-855.16602 699.91211,-872.71436 699.91211,-872.71436 C 699.91211,-872.71436 710.94434,-872.71436 710.94434,-872.71436 C 710.94434,-872.71436 691.29199,-851.80078 691.29199,-851.80078 C 691.29199,-851.80078 713.67578,-821.85205 713.67578,-821.85205 C 713.67578,-821.85205 702.43066,-821.85205 702.43066,-821.85205 C 702.43066,-821.85205 684.98926,-846.33643 684.98926,-846.33643 C 684.98926,-846.33643 680.25977,-840.97852 680.25977,-840.97852 C 680.25977,-840.97852 680.25977,-821.85205 680.25977,-821.85205 C 680.25977,-821.85205 671.01074,-821.85205 671.01074,-821.85205 C 671.01074,-821.85205 671.01074,-896.46289 671.01074,-896.46289 C 671.01074,-896.46289 680.25977,-896.46289 680.25977,-896.46289 C 680.25977,-896.46289 680.25977,-849.38477 680.25977,-849.38477 z"
         style="fill:#f68712;fill-opacity:1;fill-rule:nonzero;stroke:none"
         id="path2470" /><path
         d="M 208.51172,-821.87988 C 208.51172,-809.25684 198.27979,-799.02441 185.65723,-799.02441 C 185.65723,-799.02441 110.22998,-799.02441 110.22998,-799.02441 C 97.60742,-799.02441 87.375,-809.25684 87.375,-821.87988 C 87.375,-821.87988 87.375,-897.30664 87.375,-897.30664 C 87.375,-909.92969 97.60742,-920.16113 110.22998,-920.16113 C 110.22998,-920.16113 185.65723,-920.16113 185.65723,-920.16113 C 198.27979,-920.16113 208.51172,-909.92969 208.51172,-897.30664 C 208.51172,-897.30664 208.51172,-821.87988 208.51172,-821.87988 z"
         style="fill:#f68712;fill-opacity:1;fill-rule:nonzero;stroke:none"
         id="path2472" /><path
         d="M 117.96777,-821.50439 C 117.96777,-821.50439 118.57422,-844.47803 118.57422,-844.47803 C 118.73975,-849.9873 118.73975,-850.42773 121.99023,-851.4751 C 121.99023,-851.4751 145.73486,-859.18799 145.73486,-859.18799 C 146.72754,-859.51807 147.05762,-859.57422 147.3877,-859.57422 C 147.93896,-859.57422 148.27002,-859.29785 148.27002,-858.36133 C 148.27002,-858.36133 147.93896,-829.49316 147.93896,-829.49316 C 147.88379,-823.37744 147.82861,-821.7793 145.90088,-819.41162 C 143.75195,-816.76611 140.1709,-815.16895 136.36963,-815.16895 C 132.84277,-815.16895 130.25439,-816.71143 130.25439,-820.23633 C 130.25439,-824.91992 135.2124,-828.6665 140.99756,-828.6665 C 141.82422,-828.6665 142.48535,-828.61084 143.53223,-828.4458 C 143.53223,-828.4458 143.75195,-846.46191 143.75195,-846.46191 C 143.75195,-846.46191 122.65137,-839.96045 122.65137,-839.96045 C 122.65137,-839.96045 122.15527,-825.14063 122.15527,-825.14063 C 121.82471,-814.23145 120.61328,-809.1084 110.9165,-809.1084 C 106.67432,-809.1084 103.64453,-810.87158 103.64453,-814.94727 C 103.64453,-819.08008 107.55566,-822.00049 113.34033,-822.00049 C 114.82813,-822.00049 115.93018,-821.83545 117.96777,-821.50439 z"
         style="fill:#ffffff;fill-opacity:1;fill-rule:nonzero;stroke:none"
         id="path2474" /><path
         d="M 109.85547,-889.56836 C 109.85547,-889.56836 132.8291,-888.96191 132.8291,-888.96191 C 138.33789,-888.7959 138.77881,-888.7959 139.82568,-885.54639 C 139.82568,-885.54639 147.53906,-861.80029 147.53906,-861.80029 C 147.86914,-860.80908 147.9248,-860.47803 147.9248,-860.14844 C 147.9248,-859.59668 147.64893,-859.2666 146.71191,-859.2666 C 146.71191,-859.2666 117.84375,-859.59668 117.84375,-859.59668 C 111.72852,-859.65234 110.13037,-859.70752 107.76221,-861.63574 C 105.11719,-863.78418 103.52002,-867.36523 103.52002,-871.16699 C 103.52002,-874.69336 105.06201,-877.28223 108.58789,-877.28223 C 113.27148,-877.28223 117.01807,-872.32373 117.01807,-866.53906 C 117.01807,-865.7124 116.9624,-865.05078 116.79688,-864.00488 C 116.79688,-864.00488 134.8125,-863.78418 134.8125,-863.78418 C 134.8125,-863.78418 128.31152,-884.88477 128.31152,-884.88477 C 128.31152,-884.88477 113.4917,-885.38086 113.4917,-885.38086 C 102.58301,-885.71143 97.45898,-886.92285 97.45898,-896.61963 C 97.45898,-900.8623 99.22266,-903.8916 103.29883,-903.8916 C 107.43164,-903.8916 110.35107,-899.98096 110.35107,-894.1958 C 110.35107,-892.7085 110.18652,-891.60645 109.85547,-889.56836 z"
         style="fill:#ffffff;fill-opacity:1;fill-rule:nonzero;stroke:none"
         id="path2476" /><path
         d="M 177.91748,-897.68164 C 177.91748,-897.68164 177.31152,-874.70752 177.31152,-874.70752 C 177.14648,-869.19922 177.14648,-868.75781 173.89551,-867.71094 C 173.89551,-867.71094 150.15039,-859.99854 150.15039,-859.99854 C 149.15918,-859.66748 148.82813,-859.6123 148.49805,-859.6123 C 147.94678,-859.6123 147.61621,-859.8877 147.61621,-860.82422 C 147.61621,-860.82422 147.94678,-889.69238 147.94678,-889.69238 C 148.00244,-895.80859 148.05664,-897.40625 149.98535,-899.7749 C 152.13428,-902.41943 155.71533,-904.01758 159.5166,-904.01758 C 163.04248,-904.01758 165.63232,-902.4751 165.63232,-898.94922 C 165.63232,-894.26563 160.67334,-890.51953 154.88867,-890.51953 C 154.0625,-890.51953 153.40137,-890.5752 152.35449,-890.73975 C 152.35449,-890.73975 152.13428,-872.72412 152.13428,-872.72412 C 152.13428,-872.72412 173.23438,-879.2251 173.23438,-879.2251 C 173.23438,-879.2251 173.73096,-894.0459 173.73096,-894.0459 C 174.06104,-904.9541 175.27295,-910.07813 184.96973,-910.07813 C 189.21191,-910.07813 192.2417,-908.31396 192.2417,-904.23828 C 192.2417,-900.10547 188.33057,-897.18604 182.54541,-897.18604 C 181.05811,-897.18604 179.95557,-897.35107 177.91748,-897.68164 z"
         style="fill:#ffffff;fill-opacity:1;fill-rule:nonzero;stroke:none"
         id="path2478" /><path
         d="M 186.03125,-829.61914 C 186.03125,-829.61914 163.05762,-830.22607 163.05762,-830.22607 C 157.54883,-830.39014 157.10791,-830.39014 156.06104,-833.64111 C 156.06104,-833.64111 148.34766,-857.38623 148.34766,-857.38623 C 148.01758,-858.37793 147.96191,-858.70898 147.96191,-859.03857 C 147.96191,-859.59033 148.23779,-859.9209 149.1748,-859.9209 C 149.1748,-859.9209 178.04297,-859.59033 178.04297,-859.59033 C 184.1582,-859.53418 185.75635,-859.47998 188.12451,-857.55225 C 190.76953,-855.40332 192.3667,-851.82129 192.3667,-848.02051 C 192.3667,-844.49414 190.82422,-841.90479 187.29883,-841.90479 C 182.61523,-841.90479 178.86865,-846.86328 178.86865,-852.64795 C 178.86865,-853.47461 178.92432,-854.13623 179.08984,-855.18262 C 179.08984,-855.18262 161.07422,-855.40332 161.07422,-855.40332 C 161.07422,-855.40332 167.5752,-834.30273 167.5752,-834.30273 C 167.5752,-834.30273 182.39502,-833.80713 182.39502,-833.80713 C 193.30371,-833.47559 198.42773,-832.26416 198.42773,-822.56738 C 198.42773,-818.32471 196.66406,-815.29541 192.58789,-815.29541 C 188.45508,-815.29541 185.53564,-819.20605 185.53564,-824.99121 C 185.53564,-826.479 185.7002,-827.58154 186.03125,-829.61914 z"
         style="fill:#ffffff;fill-opacity:1;fill-rule:nonzero;stroke:none"
         id="path2480" /><path
         d="M 248.94922,-635.85205 C 248.94922,-635.85205 248.94922,-678.23535 248.94922,-678.23535 C 248.94922,-678.23535 256.6543,-678.23535 256.6543,-678.23535 C 256.6543,-678.23535 256.6543,-635.85205 256.6543,-635.85205 C 256.6543,-635.85205 248.94922,-635.85205 248.94922,-635.85205 z M 252.62646,-686.03027 C 249.73584,-686.03027 247.81152,-688.30957 247.81152,-691.02051 C 247.81152,-693.73535 249.82568,-695.9248 252.80176,-695.9248 C 255.77783,-695.9248 257.70605,-693.73535 257.70605,-691.02051 C 257.70605,-688.30957 255.77783,-686.03027 252.71631,-686.03027 C 252.71631,-686.03027 252.62646,-686.03027 252.62646,-686.03027 z"
         style="fill:#00adef;fill-opacity:1;fill-rule:nonzero;stroke:none"
         id="path2482" /><path
         d="M 268.22754,-698.90527 C 268.22754,-698.90527 246.68066,-698.90527 246.68066,-698.90527 C 246.68066,-698.90527 246.68066,-706.67871 246.68066,-706.67871 C 246.68066,-706.67871 299.12109,-706.67871 299.12109,-706.67871 C 299.12109,-706.67871 299.12109,-698.90527 299.12109,-698.90527 C 299.12109,-698.90527 277.47168,-698.90527 277.47168,-698.90527 C 277.47168,-698.90527 277.47168,-635.85205 277.47168,-635.85205 C 277.47168,-635.85205 268.22754,-635.85205 268.22754,-635.85205 C 268.22754,-635.85205 268.22754,-698.90527 268.22754,-698.90527 z"
         style="fill:#8f8d8d;fill-opacity:1;fill-rule:nonzero;stroke:none"
         id="path2484" /><path
         d="M 330.52979,-649.72363 C 330.52979,-644.46826 330.63672,-639.84619 330.95313,-635.85205 C 330.95313,-635.85205 322.75586,-635.85205 322.75586,-635.85205 C 322.75586,-635.85205 322.23047,-644.15625 322.23047,-644.15625 C 322.23047,-644.15625 322.02051,-644.15625 322.02051,-644.15625 C 319.70752,-640.05566 314.24268,-634.69775 305.20801,-634.69775 C 297.22021,-634.69775 287.65527,-639.21338 287.65527,-656.97559 C 287.65527,-656.97559 287.65527,-686.71436 287.65527,-686.71436 C 287.65527,-686.71436 296.90381,-686.71436 296.90381,-686.71436 C 296.90381,-686.71436 296.90381,-658.65576 296.90381,-658.65576 C 296.90381,-648.98779 299.95264,-642.36865 308.25195,-642.36865 C 314.45215,-642.36865 318.7627,-646.6748 320.44287,-650.87793 C 320.96875,-652.13916 321.28516,-653.82422 321.28516,-655.60693 C 321.28516,-655.60693 321.28516,-686.71436 321.28516,-686.71436 C 321.28516,-686.71436 330.52979,-686.71436 330.52979,-686.71436 C 330.52979,-686.71436 330.52979,-649.72363 330.52979,-649.72363 z"
         style="fill:#8f8d8d;fill-opacity:1;fill-rule:nonzero;stroke:none"
         id="path2486" /><path
         d="M 337.46973,-672.9458 C 337.46973,-678.30811 337.36279,-682.51123 337.05078,-686.71436 C 337.05078,-686.71436 345.24756,-686.71436 345.24756,-686.71436 C 345.24756,-686.71436 345.77344,-678.41064 345.77344,-678.41064 C 345.77344,-678.41064 345.98291,-678.41064 345.98291,-678.41064 C 348.50586,-683.13965 354.38965,-687.86914 362.7959,-687.86914 C 369.83838,-687.86914 380.76367,-683.66553 380.76367,-666.22412 C 380.76367,-666.22412 380.76367,-635.85205 380.76367,-635.85205 C 380.76367,-635.85205 371.51855,-635.85205 371.51855,-635.85205 C 371.51855,-635.85205 371.51855,-665.17236 371.51855,-665.17236 C 371.51855,-673.36914 368.47021,-680.30469 359.74707,-680.30469 C 353.75684,-680.30469 349.02734,-675.99463 347.34668,-670.84668 C 346.92773,-669.69189 346.71875,-668.00732 346.71875,-666.53613 C 346.71875,-666.53613 346.71875,-635.85205 346.71875,-635.85205 C 346.71875,-635.85205 337.46973,-635.85205 337.46973,-635.85205 C 337.46973,-635.85205 337.46973,-672.9458 337.46973,-672.9458 z"
         style="fill:#8f8d8d;fill-opacity:1;fill-rule:nonzero;stroke:none"
         id="path2488" /><path
         d="M 419.64453,-666.32666 C 419.74707,-672.10791 417.22852,-681.35693 406.92773,-681.35693 C 397.46973,-681.35693 393.47559,-672.73633 392.74023,-666.32666 C 392.74023,-666.32666 419.64453,-666.32666 419.64453,-666.32666 z M 392.6377,-659.70752 C 392.84717,-647.20068 400.72754,-642.05225 409.97656,-642.05225 C 416.5957,-642.05225 420.69629,-643.20703 424.05664,-644.5752 C 424.05664,-644.5752 425.7373,-638.05859 425.7373,-638.05859 C 422.4834,-636.58789 416.80518,-634.80029 408.71484,-634.80029 C 393.16357,-634.80029 383.70508,-645.20361 383.70508,-660.44336 C 383.70508,-675.89209 392.84717,-687.97607 407.66309,-687.97607 C 424.2666,-687.97607 428.57715,-673.36914 428.57715,-664.01367 C 428.57715,-662.12354 428.46973,-660.65283 428.26074,-659.60059 C 428.26074,-659.60059 392.6377,-659.70752 392.6377,-659.70752 z"
         style="fill:#8f8d8d;fill-opacity:1;fill-rule:nonzero;stroke:none"
         id="path2490" /><path
         d="M 432.46387,-645.20361 C 435.30273,-643.52344 440.13477,-641.6333 444.76172,-641.6333 C 451.38086,-641.6333 454.53125,-644.8916 454.53125,-649.19727 C 454.53125,-653.61035 451.90625,-656.03027 445.17969,-658.54883 C 435.93164,-661.91406 431.625,-666.85254 431.625,-672.9458 C 431.625,-681.14307 438.34766,-687.86914 449.17383,-687.86914 C 454.32227,-687.86914 458.8418,-686.50488 461.57422,-684.71777 C 461.57422,-684.71777 459.36719,-678.09863 459.36719,-678.09863 C 457.37109,-679.25293 453.69336,-681.04053 448.96484,-681.04053 C 443.5,-681.04053 440.55371,-677.88477 440.55371,-674.10449 C 440.55371,-669.79443 443.5,-667.90479 450.11914,-665.38184 C 458.8418,-662.12354 463.46387,-657.71094 463.46387,-650.04004 C 463.46387,-641.00049 456.42578,-634.69775 444.54688,-634.69775 C 438.98047,-634.69775 433.83203,-636.16846 430.25781,-638.26807 C 430.25781,-638.26807 432.46387,-645.20361 432.46387,-645.20361 z"
         style="fill:#8f8d8d;fill-opacity:1;fill-rule:nonzero;stroke:none"
         id="path2492" /><path
         d="M 520.84277,-638.05859 C 517.58398,-636.37842 510.75195,-634.69775 502.13574,-634.69775 C 482.17188,-634.69775 467.24805,-647.30762 467.24805,-670.63672 C 467.24805,-692.91455 482.27344,-707.8374 504.23926,-707.8374 C 512.95801,-707.8374 518.63184,-705.94336 521.05273,-704.68213 C 521.05273,-704.68213 518.73926,-697.22021 518.73926,-697.22021 C 515.37793,-698.90527 510.43945,-700.1665 504.55176,-700.1665 C 487.94824,-700.1665 476.91602,-689.54932 476.91602,-670.94922 C 476.91602,-653.50781 486.89648,-642.47119 504.02539,-642.47119 C 509.7041,-642.47119 515.37793,-643.63037 519.05566,-645.41309 C 519.05566,-645.41309 520.84277,-638.05859 520.84277,-638.05859 z"
         style="fill:#00adef;fill-opacity:1;fill-rule:nonzero;stroke:none"
         id="path2494" /><path
         d="M 527.88086,-710.46289 C 527.88086,-710.46289 537.12988,-710.46289 537.12988,-710.46289 C 537.12988,-710.46289 537.12988,-678.72705 537.12988,-678.72705 C 537.12988,-678.72705 537.33984,-678.72705 537.33984,-678.72705 C 538.81055,-681.35693 541.12305,-683.77246 543.95898,-685.24365 C 546.69043,-686.92383 549.94922,-687.86914 553.41699,-687.86914 C 560.24512,-687.86914 571.1748,-683.66553 571.1748,-666.11719 C 571.1748,-666.11719 571.1748,-635.85205 571.1748,-635.85205 C 571.1748,-635.85205 561.92969,-635.85205 561.92969,-635.85205 C 561.92969,-635.85205 561.92969,-665.06543 561.92969,-665.06543 C 561.92969,-673.36914 558.88086,-680.19775 550.1582,-680.19775 C 544.16797,-680.19775 539.5459,-675.99463 537.75781,-670.94922 C 537.23242,-669.69189 537.12988,-668.32373 537.12988,-666.53613 C 537.12988,-666.53613 537.12988,-635.85205 537.12988,-635.85205 C 537.12988,-635.85205 527.88086,-635.85205 527.88086,-635.85205 C 527.88086,-635.85205 527.88086,-710.46289 527.88086,-710.46289 z"
         style="fill:#00adef;fill-opacity:1;fill-rule:nonzero;stroke:none"
         id="path2496" /><path
         d="M 612.15527,-666.32666 C 612.25781,-672.10791 609.73926,-681.35693 599.43848,-681.35693 C 589.98047,-681.35693 585.98633,-672.73633 585.25098,-666.32666 C 585.25098,-666.32666 612.15527,-666.32666 612.15527,-666.32666 z M 585.14844,-659.70752 C 585.35742,-647.20068 593.23828,-642.05225 602.4873,-642.05225 C 609.10645,-642.05225 613.20703,-643.20703 616.56836,-644.5752 C 616.56836,-644.5752 618.24805,-638.05859 618.24805,-638.05859 C 614.99414,-636.58789 609.31641,-634.80029 601.22559,-634.80029 C 585.67383,-634.80029 576.21582,-645.20361 576.21582,-660.44336 C 576.21582,-675.89209 585.35742,-687.97607 600.17383,-687.97607 C 616.77734,-687.97607 621.08789,-673.36914 621.08789,-664.01367 C 621.08789,-662.12354 620.98047,-660.65283 620.77148,-659.60059 C 620.77148,-659.60059 585.14844,-659.70752 585.14844,-659.70752 z"
         style="fill:#00adef;fill-opacity:1;fill-rule:nonzero;stroke:none"
         id="path2498" /><path
         d="M 662.49121,-637.63965 C 660.0752,-636.48096 654.71387,-634.69775 647.88477,-634.69775 C 632.54297,-634.69775 622.55859,-645.10107 622.55859,-660.75977 C 622.55859,-676.41357 633.27832,-687.86914 649.88184,-687.86914 C 655.34668,-687.86914 660.17773,-686.50488 662.70117,-685.13672 C 662.70117,-685.13672 660.59766,-678.09863 660.59766,-678.09863 C 658.39063,-679.25293 654.92285,-680.51416 649.88184,-680.51416 C 638.2168,-680.51416 631.91016,-671.7915 631.91016,-661.17871 C 631.91016,-649.40674 639.47852,-642.15918 649.56543,-642.15918 C 654.82031,-642.15918 658.28809,-643.4209 660.91406,-644.5752 C 660.91406,-644.5752 662.49121,-637.63965 662.49121,-637.63965 z"
         style="fill:#00adef;fill-opacity:1;fill-rule:nonzero;stroke:none"
         id="path2500" /><path
         d="M 676.25977,-663.38477 C 676.25977,-663.38477 676.46973,-663.38477 676.46973,-663.38477 C 677.73047,-665.17236 679.41113,-667.48145 680.88281,-669.16602 C 680.88281,-669.16602 695.91211,-686.71436 695.91211,-686.71436 C 695.91211,-686.71436 706.94434,-686.71436 706.94434,-686.71436 C 706.94434,-686.71436 687.29199,-665.80078 687.29199,-665.80078 C 687.29199,-665.80078 709.67578,-635.85205 709.67578,-635.85205 C 709.67578,-635.85205 698.43066,-635.85205 698.43066,-635.85205 C 698.43066,-635.85205 680.98926,-660.33643 680.98926,-660.33643 C 680.98926,-660.33643 676.25977,-654.97852 676.25977,-654.97852 C 676.25977,-654.97852 676.25977,-635.85205 676.25977,-635.85205 C 676.25977,-635.85205 667.01074,-635.85205 667.01074,-635.85205 C 667.01074,-635.85205 667.01074,-710.46289 667.01074,-710.46289 C 667.01074,-710.46289 676.25977,-710.46289 676.25977,-710.46289 C 676.25977,-710.46289 676.25977,-663.38477 676.25977,-663.38477 z"
         style="fill:#00adef;fill-opacity:1;fill-rule:nonzero;stroke:none"
         id="path2502" /><path
         d="M 110.04014,-613.1342 C 97.4171,-613.1342 87.18467,-623.36613 87.18467,-635.98869 C 87.18467,-635.98869 87.18467,-711.41595 87.18467,-711.41595 C 87.18467,-724.0385 97.4171,-734.27092 110.04014,-734.27092 C 110.04014,-734.27092 185.4669,-734.27092 185.4669,-734.27092 C 198.08995,-734.27092 208.32139,-724.0385 208.32139,-711.41595 C 208.32139,-711.41595 208.32139,-635.98869 208.32139,-635.98869 C 208.32139,-623.36613 198.08995,-613.1342 185.4669,-613.1342 C 185.4669,-613.1342 110.04014,-613.1342 110.04014,-613.1342 z"
         style="opacity:1;fill:url(#linearGradient3315);fill-opacity:1;fill-rule:nonzero;stroke:none;display:inline"
         id="path3307" /><path
         id="path3331"
         style="fill:#8cd009;fill-opacity:1;fill-rule:nonzero;stroke:none"
         d="M 206.97933,-636.83402 C 206.97933,-624.53034 197.00628,-614.5568 184.70307,-614.5568 C 184.70307,-614.5568 111.18413,-614.5568 111.18413,-614.5568 C 98.880918,-614.5568 88.907385,-624.53034 88.907385,-636.83402 C 88.907385,-636.83402 88.907385,-710.35248 88.907385,-710.35248 C 88.907385,-722.65617 98.880918,-732.62874 111.18413,-732.62874 C 111.18413,-732.62874 184.70307,-732.62874 184.70307,-732.62874 C 197.00628,-732.62874 206.97933,-722.65617 206.97933,-710.35248 C 206.97933,-710.35248 206.97933,-636.83402 206.97933,-636.83402 z" /><path
         d="M 180.1291,-666.41553 C 180.1291,-666.41553 180.1291,-693.7041 180.1291,-693.7041 C 180.1291,-701.07617 174.13008,-707.0752 166.7585,-707.0752 C 166.7585,-707.0752 87.203556,-707.0752 87.203556,-707.0752 C 87.203556,-707.0752 87.203556,-653.04443 87.203556,-653.04443 C 87.203556,-653.04443 166.7585,-653.04443 166.7585,-653.04443 C 174.13008,-653.04443 180.1291,-659.04346 180.1291,-666.41553 z"
         style="fill:#b3e64c;fill-opacity:1;fill-rule:nonzero;stroke:none"
         id="path2420"
         sodipodi:nodetypes="ccccccc" /><path
         d="M 148.54265,-679.66215 C 148.54265,-679.66215 148.97793,-694.48262 148.97793,-694.48262 C 149.09719,-698.03631 149.09719,-698.3207 151.43197,-698.99598 C 151.43197,-698.99598 168.48902,-703.97163 168.48902,-703.97163 C 169.20258,-704.18403 169.43911,-704.22091 169.67629,-704.22091 C 170.0725,-704.22091 170.31035,-704.04243 170.31035,-703.43854 C 170.31035,-703.43854 170.0725,-684.81629 170.0725,-684.81629 C 170.03275,-680.87052 169.99299,-679.84005 168.60828,-678.31279 C 167.06457,-676.60584 164.4926,-675.57596 161.76162,-675.57596 C 159.22807,-675.57596 157.36898,-676.57074 157.36898,-678.84468 C 157.36898,-681.86588 160.93012,-684.28261 165.08623,-684.28261 C 165.67986,-684.28261 166.15491,-684.24692 166.90689,-684.13983 C 166.90689,-684.13983 167.06457,-695.76237 167.06457,-695.76237 C 167.06457,-695.76237 151.90701,-691.56849 151.90701,-691.56849 C 151.90701,-691.56849 151.55058,-682.00867 151.55058,-682.00867 C 151.31338,-674.97089 150.44281,-671.66649 143.47754,-671.66649 C 140.42985,-671.66649 138.25342,-672.80345 138.25342,-675.43258 C 138.25342,-678.0986 141.06325,-679.98225 145.21869,-679.98225 C 146.28736,-679.98225 147.0791,-679.87634 148.54265,-679.66215 z"
         style="fill:#ffffff;fill-opacity:1;fill-rule:nonzero;stroke:none"
         id="path2504" /><path
         d="M 171.51777,-711.56494 C 171.51777,-711.56494 87.314141,-711.56494 87.314141,-711.56494 C 87.314141,-711.56494 87.151998,-707.0752 87.151998,-707.0752 C 87.151998,-707.0752 166.7585,-707.0752 166.7585,-707.0752 C 174.13008,-707.0752 180.1291,-701.07617 180.1291,-693.7041 C 180.1291,-693.7041 180.1291,-666.41553 180.1291,-666.41553 C 180.1291,-659.04346 174.13008,-653.04443 166.7585,-653.04443 C 166.7585,-653.04443 87.192534,-653.08497 87.192534,-653.08497 C 87.192534,-653.08497 87.192534,-648.96092 87.192534,-648.96092 C 87.192534,-648.96092 166.7585,-649.04199 166.7585,-649.04199 C 176.34102,-649.04199 184.13984,-656.83301 184.13984,-666.41553 C 184.13984,-666.41553 184.13984,-693.7041 184.13984,-693.7041 C 184.13984,-698.45068 182.21602,-702.75195 179.12031,-705.89063 C 185.55586,-702.97852 190.0627,-696.52637 190.0627,-689.01367 C 190.0627,-689.01367 190.0627,-652.54004 190.0627,-652.54004 C 190.0627,-642.31592 181.74531,-633.99951 171.51777,-633.99951 C 171.51777,-633.99951 87.44531,-633.99951 87.44531,-633.99951 C 87.44531,-633.99951 87.720128,-630.75895 88.125486,-630.06984 C 88.125486,-630.06984 171.51777,-629.98877 171.51777,-629.98877 C 183.95234,-629.98877 194.07344,-640.10547 194.07344,-652.54004 C 194.07344,-652.54004 194.07344,-689.01367 194.07344,-689.01367 C 194.07344,-701.44775 183.95234,-711.56494 171.51777,-711.56494 z"
         style="fill:#ffffff;fill-opacity:1;fill-rule:nonzero;stroke:none"
         id="path2506"
         sodipodi:nodetypes="cccccccccccccccccccccc" /><path
         d="M 133.05383,-678.88943 C 133.05383,-679.88983 132.69837,-680.73653 131.99329,-681.42893 C 131.28772,-682.12623 130.44104,-682.47243 129.45325,-682.47243 C 129.45325,-682.47243 125.85266,-682.47243 125.85266,-682.47243 C 125.85266,-682.47243 125.85266,-678.88943 125.85266,-678.88943 C 125.85266,-677.91433 126.20325,-677.08913 126.9093,-676.40893 C 127.61438,-675.72483 128.46106,-675.38303 129.45325,-675.38303 C 130.44104,-675.38303 131.28772,-675.73363 131.99329,-676.42603 C 132.69837,-677.12323 133.05383,-677.94013 133.05383,-678.88943 z M 133.05383,-696.77563 C 133.05383,-697.75023 132.69837,-698.57543 131.99329,-699.25953 C 131.28772,-699.93533 130.44104,-700.27753 129.45325,-700.27753 C 128.46106,-700.27753 127.61438,-699.93533 126.9093,-699.25953 C 126.20325,-698.57543 125.85266,-697.75023 125.85266,-696.77563 C 125.85266,-696.77563 125.85266,-693.19213 125.85266,-693.19213 C 125.85266,-693.19213 129.45325,-693.19213 129.45325,-693.19213 C 130.46692,-693.19213 131.3219,-693.54713 132.01477,-694.25703 C 132.70325,-694.96263 133.05383,-695.80493 133.05383,-696.77563 z M 122.27844,-686.10273 C 122.27844,-686.10273 122.27844,-689.56173 122.27844,-689.56173 C 122.27844,-689.56173 118.7638,-689.56173 118.7638,-689.56173 C 118.7638,-689.56173 118.7638,-686.10273 118.7638,-686.10273 C 118.7638,-686.10273 122.27844,-686.10273 122.27844,-686.10273 z M 115.1886,-678.88943 C 115.1886,-678.88943 115.1886,-682.47243 115.1886,-682.47243 C 115.1886,-682.47243 111.5968,-682.47243 111.5968,-682.47243 C 110.59192,-682.47243 109.75012,-682.11743 109.06995,-681.41183 C 108.38587,-680.70233 108.04407,-679.85963 108.04407,-678.88943 C 108.04407,-677.91433 108.39465,-677.08913 109.09094,-676.40893 C 109.7843,-675.72483 110.62219,-675.38303 111.5968,-675.38303 C 112.5719,-675.38303 113.41419,-675.72483 114.12415,-676.40893 C 114.83411,-677.08913 115.1886,-677.91433 115.1886,-678.88943 z M 115.1886,-693.19213 C 115.1886,-693.19213 115.1886,-696.77563 115.1886,-696.77563 C 115.1886,-697.75023 114.83411,-698.57543 114.12415,-699.25953 C 113.41419,-699.93533 112.5719,-700.27753 111.5968,-700.27753 C 110.62219,-700.27753 109.7843,-699.93533 109.09094,-699.25953 C 108.39465,-698.57543 108.04407,-697.75023 108.04407,-696.77563 C 108.04407,-695.77463 108.39465,-694.92793 109.09094,-694.23563 C 109.7843,-693.53833 110.62219,-693.19213 111.5968,-693.19213 C 111.5968,-693.19213 115.1886,-693.19213 115.1886,-693.19213 z M 136.62415,-678.88943 C 136.62415,-676.97333 135.92298,-675.30593 134.51575,-673.88643 C 133.1095,-672.46653 131.42444,-671.75703 129.45325,-671.75703 C 127.50794,-671.75703 125.82337,-672.45823 124.40735,-673.86063 C 122.9884,-675.26343 122.27844,-676.93533 122.27844,-678.87233 C 122.27844,-678.87233 122.27844,-682.47243 122.27844,-682.47243 C 122.27844,-682.47243 118.7638,-682.47243 118.7638,-682.47243 C 118.7638,-682.47243 118.7638,-678.87233 118.7638,-678.87233 C 118.7638,-676.96063 118.05774,-675.29763 116.6554,-673.88203 C 115.25305,-672.46653 113.56848,-671.75703 111.5968,-671.75703 C 109.6554,-671.75703 107.98352,-672.45823 106.57727,-673.86493 C 105.17444,-675.27173 104.47327,-676.94363 104.47327,-678.88943 C 104.47327,-680.88593 105.17444,-682.58763 106.57727,-683.99483 C 107.97962,-685.39723 109.65149,-686.10273 111.5885,-686.10273 C 111.5885,-686.10273 115.1886,-686.10273 115.1886,-686.10273 C 115.1886,-686.10273 115.1886,-689.56173 115.1886,-689.56173 C 115.1886,-689.56173 111.5885,-689.56173 111.5885,-689.56173 C 109.62122,-689.56173 107.94544,-690.28003 106.55579,-691.71263 C 105.16614,-693.14523 104.47327,-694.82153 104.47327,-696.73703 C 104.47327,-698.70383 105.17444,-700.39723 106.57727,-701.79953 C 107.98352,-703.20633 109.6554,-703.90743 111.5968,-703.90743 C 113.53821,-703.90743 115.21448,-703.20633 116.63831,-701.80393 C 118.05383,-700.40163 118.7638,-698.72973 118.7638,-696.79273 C 118.7638,-696.79273 118.7638,-693.19213 118.7638,-693.19213 C 118.7638,-693.19213 122.27844,-693.19213 122.27844,-693.19213 C 122.27844,-693.19213 122.27844,-696.79273 122.27844,-696.79273 C 122.27844,-698.72973 122.9884,-700.40163 124.40735,-701.80393 C 125.82337,-703.20633 127.49036,-703.90743 129.41028,-703.90743 C 131.38196,-703.90743 133.07532,-703.20633 134.49426,-701.79953 C 135.91419,-700.39723 136.62415,-698.72093 136.62415,-696.77563 C 136.62415,-694.83423 135.91858,-693.14523 134.50745,-691.71263 C 133.10071,-690.28003 131.39465,-689.56173 129.3888,-689.56173 C 129.3888,-689.56173 125.85266,-689.56173 125.85266,-689.56173 C 125.85266,-689.56173 125.85266,-686.10273 125.85266,-686.10273 C 125.85266,-686.10273 129.42786,-686.10273 129.42786,-686.10273 C 131.37708,-686.10273 133.06214,-685.39283 134.48596,-683.97333 C 135.91028,-682.55343 136.62415,-680.85623 136.62415,-678.88943 z"
         style="fill:#ffffff;fill-opacity:1;fill-rule:nonzero;stroke:none"
         id="path2510" /><path
         d="M 190.0627,-652.54004 C 190.0627,-652.54004 190.0627,-689.01367 190.0627,-689.01367 C 190.0627,-696.52637 185.55586,-702.97852 179.12031,-705.89063 C 182.21602,-702.75195 184.13984,-698.45068 184.13984,-693.7041 C 184.13984,-693.7041 184.13984,-666.41553 184.13984,-666.41553 C 184.13984,-656.83301 176.34102,-649.04199 166.7585,-649.04199 C 166.7585,-649.04199 87.203556,-649.04199 87.203556,-649.04199 C 87.203556,-649.04199 87.448708,-633.99951 87.448708,-633.99951 C 87.448708,-633.99951 171.51777,-633.99951 171.51777,-633.99951 C 181.74531,-633.99951 190.0627,-642.31592 190.0627,-652.54004 z"
         style="fill:#a1e61d;fill-opacity:1;fill-rule:nonzero;stroke:none"
         id="path2418"
         sodipodi:nodetypes="cccccccccc" /></g></g><g
     inkscape:groupmode="layer"
     id="layer2"
     inkscape:label="gradient" /></svg>